<svg xmlns="http://www.w3.org/2000/svg" width="200" height="193" fill="none">
  <g clip-path="url(#a)" opacity=".35">
    <path fill="#CBCBCB" fill-rule="evenodd" d="M4.614 132.271c-.382-6.027-.764-12.199-1.135-18.278l-.691-11.601-.124-2.133c-.588-2.473-.577-5.09-.505-7.357l-1.589.124c-.32.02-.515-.155-.557-.32-.051-.175.042-.391.351-.463 2.011-.474 2.228-.505 4.301-.907C32.06 66.093 41.21 41.962 31.855 19.624 25.19 15.224 17.361 9.166 10.987 5.59c-.227-.134-.227-.34-.113-.485.113-.144.36-.216.598-.082 18.143 10.077 40.319 16.382 65.93 18.742 11.634 1.072 24.002 1.39 37.833.958 9.355-.288 20.413-.834 31.449-2.658 12.955-2.133 23.569-5.832 32.429-11.293a.329.329 0 0 1 .412.052c.103.103.093.237-.031.32-16.245 10.849-38.71 13.25-58.555 14.166-14.533.67-27.643.567-39.741-.35-12.42-.948-23.775-2.74-34.513-5.43-11.696-2.926-22.062-7.078-31.871-12.22 11.964 7.83 19.319 13.106 31.294 21.02 3.713 2.452 7.416 4.904 11.13 7.356 10.747 7.089 40.793 10.334 54.202 9.448a111.744 111.744 0 0 0 24.579-4.4c7.21-2.153 13.398-5.172 19.958-8.366A3784.742 3784.742 0 0 1 192.203.1a.396.396 0 0 1 .34-.093c.134.031.258.124.31.237.051.124.02.237-.083.33a2021.24 2021.24 0 0 0-14.1 12.416c-.381 1.05-.877 2.101-1.351 3.111-.474 1-.97 2.04-1.341 3.08a45.586 45.586 0 0 0-1.97 7.46 44.914 44.914 0 0 0-.134 14.632c1.403 9.139 5.745 18.092 12.903 26.613a715.858 715.858 0 0 1 12.873-1.782c.155-.02.299.051.34.185.041.124-.051.248-.206.278-6.467 1.299-11.439 2.061-17.586 2.927-16.772 27.18-16.514 57.853-16.266 87.517a1518.005 1518.005 0 0 0 11.17 15.156c.073.093.031.196-.072.248-.124.051-.268.02-.34-.072a899.664 899.664 0 0 1-9.582-12.622c-.083.031-.196.02-.299.01-21.403-1.628-41.774 6.708-51.934 21.256a535.244 535.244 0 0 1-.381 11.839c0 .103-.104.175-.238.175h-.01c-.124-.01-.227-.093-.227-.196-.093-4.925-.103-8.933-.093-13.26-15.925-16.465-34.172-29.973-54.233-40.132-6.302 7.913-12.47 15.908-18.783 23.811-.144.185-.412.227-.64.113-.216-.103-.36-.34-.206-.566 3.507-5.07 7.427-10.324 11.976-16.074-.547-11.88-3.858-22.224-10.13-31.621-4.053-6.079-9.19-11.622-15.265-16.465-.65 6.893-4.497 10.839-11.119 11.406-3.733.319-7.622-1.319-10.139-4.286a12.056 12.056 0 0 1-1.825-2.895 5631.63 5631.63 0 0 1 1.784 29.344m108.549 46.613c.011-1.968.031-4.029.052-6.275-9.953-17.279-28.004-31.508-49.53-39.03a638.681 638.681 0 0 0-4.312 5.358c21.475 10.86 40.062 24.667 53.79 39.947Zm27.385-77.853a53.837 53.837 0 0 1 13.223-28.005c-2.062.227-4.125.453-6.137.67-.67 4.987-2.228 9.633-4.621 13.837-1.536 2.69-3.775 5.708-7.643 5.1-1.681-.257-3.228-1.143-4.62-2.627-1.599 4.657-2.105 9.551-1.486 14.559.011.093-.072.175-.185.185-.031 0-.073 0-.104-.01.011.01.021.031.031.041.021.01.031.021.052.021.041.02.082.041.113.062.083.051.145.113.155.195a.248.248 0 0 1-.041.165 1095.7 1095.7 0 0 0 12.738 19.093 55.794 55.794 0 0 1-1.867-19.948c.093-1.133.227-2.236.392-3.338Zm-60.66-50.25c-.38-.114-.762-.217-1.144-.33l1.114.742.02-.371c0-.02 0-.03.01-.041Zm-13.057 4.09c-.66 3.988-2.042 8.027-4.105 11.911a43.843 43.843 0 0 1-4.466 6.79c-3.724 4.657-8.365 8.562-13.574 11.344l.856-.144 5.301-.927c2.424-.433 9.675-1.33 11.233-2.257 6.271-3.74 10.995-8.377 14.027-13.765 2.507-4.451 3.208-8.779 3.57-13.735.05-.71.102-1.432.144-2.163l-3.136-2.072h-.02a.507.507 0 0 1-.269-.185l-9.757-6.46c.804 3.72.866 7.666.196 11.663Zm1.279 71.65c4.043-4.708 7.756-9.005 12.047-13.786-.289-5.914-1.444-10.612-3.692-14.94a29.51 29.51 0 0 0-1.032-1.834c-2.579-4.265-6.271-8.129-11.232-11.735a63.549 63.549 0 0 0-2.208-1.535c-4.28.803-7.746 1.452-10.912 2.02-1.434.257-2.868.514-4.302.761l-1.763.31c8.437 4.131 15.45 10.468 19.762 17.886 4.394 7.563 5.57 15.641 3.332 22.853Zm45.383 30.622a68.983 68.983 0 0 0-7.436-10.695c-8.5-10.076-20.062-18.196-33.553-23.419a438.908 438.908 0 0 0-4.054 4.791c-1.578 1.896-2.764 3.317-4.25 5.141a103.192 103.192 0 0 1 15.4 6.831c14.564 7.934 26.405 19.01 33.636 31.745.031-1.885.051-3.853.092-6.048.052-2.936.104-5.45.165-8.346Zm25.034-81.242c.536-.505 1.083-1 1.65-1.474-.619.062-1.248.114-1.867.175l-.402.031c-4.693 2.968-7.788 5.729-10.046 8.933.01.021.01.052.01.072l.031.124c.433 1.577 1.289 3.318 2.31 4.73 1.743-4.75 4.59-9.047 8.314-12.591Zm-7.571 13.518c1.279 1.463 3.373 3.101 6.116 2.689 3.693-.546 5.519-4.75 6.725-7.532.093-.216.186-.422.269-.618 1.413-3.174 2.392-6.605 2.929-10.21-2.166.226-3.982.401-5.673.566-4.889 4.585-8.375 9.665-10.366 15.105Zm-5.58-13.611c-2.321 2.462-3.786 4.75-4.58 7.192a16.126 16.126 0 0 0-.794 4.245c-.041.978 0 2.493.144 3.513.516 1.103 1.186 2.082 2.837 4.668.082-3.174.938-6.43 2.444-9.459a26.33 26.33 0 0 1 1.723-2.936 12.635 12.635 0 0 1 .815-7.594c-.764.052-1.517.113-2.28.165a.678.678 0 0 0-.309.206Zm-11.346 44.397v-.288c-.083-.052-.145-.124-.155-.196a.27.27 0 0 1 .01-.154.312.312 0 0 1 .104-.134c.02-.011.03-.021.051-.031l.072-5.78c-3.084-7.172-9.974-12.241-19.927-14.652-1.63 1.69-2.94 3.07-4.116 4.348-.247.278-.505.546-.753.824l-.433.474c11.099 1.742 20.66 7.676 25.147 15.589ZM91.204 105.4a58.728 58.728 0 0 1 6.23 3.524 53.238 53.238 0 0 1 3.764 2.679 52.032 52.032 0 0 1 3.414 2.885c4.838 4.482 8.376 9.561 10.036 14.672l.103-8.181a.145.145 0 0 1-.03-.041c-4.9-7.913-13.44-13.539-23.517-15.538Zm24.538-7.223c-.031 2.391-.062 4.616-.083 6.966 2.084-1.587 5.23-2.298 8.386-2.051 1.506.113 3.012.443 4.414 1-.99-1.536-1.98-3.071-2.97-4.616-2.795-1.597-5.725-1.989-9.747-1.299Zm9.21.454-.226-.36c-.135-.217-.279-.434-.413-.65 0 .258.01.484.01.71.207.094.423.197.629.3Zm-4.909-34.98c-6.467 1.854-14.1 1.782-20.423-.3 9.531 5.286 20.227 2.072 20.526 2.216l.629-.587.052-.052c.846-.803 1.691-1.597 2.527-2.4l.072-.073c-.485.206-.98.402-1.496.588l-1.887.608Zm-27.85 12.353c1.342-.267 2.353-.474 3.57-.72 1.68-.34 3.341-.68 5.012-1.02 1.795-.361 1.826-.258 1.64-1.062-.154-.629-.288-1.278-.422-1.906-.568-2.69-1.145-5.482-3.466-7.635-.371-.206-.743-.412-1.104-.618 1.867 4.75-.371 10.241-5.23 12.961Zm22.785 26.151c-4.29-4.37-9.221-7.13-15.048-8.439l-1.486 1.525c-1 1.03-2.011 2.06-3.011 3.09 8.323 1.33 16.183 6.987 19.422 13.911.041-3.699.082-6.492.123-10.087Zm.011-.835c.041-3.307.062-5.049.103-8.902-2.331-2.834-5.395-4.4-9.376-4.781a275.34 275.34 0 0 1-5.25 5.512c6.044 1.422 11.294 4.38 14.523 8.171Zm-9.727-14.693c.547-.515 1.475-1.37 2.104-1.947.351-.855.114-2.463-1.898-5.554-.361-.443-.742-.896-1.062-1.34-.691-.968-1.176-1.905-1.588-3.204-.372.01-1.269.227-1.568.289-.279.062-.557.113-.836.175 4.136 2.803 6.034 7.377 4.848 11.581Zm1.021.412c3.559.33 7.014 2.102 8.83 4.524l.041-3.648c-2.238-1.638-4.456-2.452-7.117-2.617-.062 0-.114-.01-.165-.01-.537.577-1.063 1.164-1.589 1.751Zm-1.794.33a9.549 9.549 0 0 0 .474-3.318c-.113-3.297-1.97-6.45-5.332-8.84-1.001.216-1.991.422-2.992.629l-1 .206c4.157 3.977 6.364 8.891 6.25 13.899a124.64 124.64 0 0 1 2.6-2.576Zm15.017-21.04c-.629-.103-2.692.402-3.857.629-.753.144-1.403.268-1.733.288a28.487 28.487 0 0 1-6.416-.412 26.715 26.715 0 0 1-5.631-1.648 6.773 6.773 0 0 0-.454-.186c-.351-.144-.732-.288-1.083-.463 1.485 1.978 1.929 4.245 2.362 6.44.196.988.392 1.998.691 2.967.547 1.803 1.526 3.122 2.579 4.523.371.495.753 1.01 1.134 1.566.877 1.278 1.011 2.205 1.186 3.503.021.124.062.278.021.392-.186.556-.103.639.113.721l.062.052c.145.103 1.3.267 1.919.36.536.082.856.124.969.165 1.455.453 2.734 1.113 3.796 1.989.299-.32 1.877-1.237 2.383-1.69-.011 0 .01 0 0 0 .763-1.649 4.115-8.645 3.888-10.026-.062-.401-.505-.968-.928-1.504-.351-.453-.691-.876-.846-1.236a9.128 9.128 0 0 1-.67-2.34c-.072-.411.381-3.956.515-4.09Zm-3.754 31.138c2.383-.67 5.374-.423 8.087.659a21.076 21.076 0 0 1-.114-1.412c-2.156-3.4-4.064-6.429-6.189-9.85l-1.732 1c-.083.061-.042 8.624-.052 9.602Zm-21.145.175c-.598-6.924-3.785-13.26-9.736-19.37a1628.51 1628.51 0 0 1-21.176 4.151c9.912 5.966 16.689 15.95 17.7 25.512.144 1.36.175 2.72.072 4.059 4.332-4.822 8.757-9.582 13.14-14.352Zm.475-.505c1.826-1.978 3.97-4.287 6.219-6.584.186-5.337-2.01-10.293-6.343-14.353-3.156.66-6.271 1.309-9.252 1.917l-.01.01c5.59 4.894 9.076 11.973 9.386 19.01Zm-4.714-20.762c5.88-3.616 7.87-8.17 6.086-13.93-1.537-.948-3.074-1.999-4.456-2.957 2.66 5.729.69 12.807-4.89 17.536 1.094-.216 2.177-.432 3.26-.649Zm2.166-17.464c.66.422 1.33.834 2.001 1.267.072.031.134.062.206.093 2.651 1.236 5.488 2.421 8.675 3.173.526.124 1.073.227 1.619.33.134.02.248.052.382.083 1.372.237 2.795.38 4.311.422 5.034.134 9.789-.824 14.977-3.03.433-.411.877-.823 1.31-1.236.557-.525 1.104-1.05 1.661-1.576-5.838 1.68-12.471 2.442-19.227 2.205-4.982-.175-12.016-.855-18.019-3.08.68.453 1.403.906 2.104 1.349Zm28.324 6.697-.609.557c-1.176 3.132-.536 6.367 1.795 9.128.031-.01.072-.02.113-.03l3.156-.279c-2.619-2.586-4.197-5.893-4.455-9.376Zm1.619 10.17c-1.104 2.658-2.682 5.388-4.332 10.726.609.978 1.217 1.957 1.836 2.936-.464-5.244 1.526-10.252 5.518-13.868-1 .072-2.011.144-3.022.206Zm5.869 6.501a25.819 25.819 0 0 1 8.829-7.604c-2.578.227-5.24.443-7.901.639-.969 2.329-1.289 4.678-.928 6.965Zm.371 3.328c-.206-.474-.392-.989-.546-1.514-.104.154-.217.309-.32.474-2.187 3.523-3.373 7.47-3.538 11.725a1633.29 1633.29 0 0 0 5.24 8.119c-.97-5.018-.557-10.334 1.176-15.383a16.458 16.458 0 0 1-2.012-3.42Zm.32 19.381a13.258 13.258 0 0 0-4.126-1.216c-.227-.031-.464-.041-.691-.062-.051 0-.103-.01-.155-.01-.196-.01-.391-.01-.577-.01-.093 0-.186-.011-.279 0-.237 0-.474.02-.711.031-.052 0-.093 0-.145.01-.546.041-1.093.124-1.64.237-.02 0-.041.01-.072.01-.567.124-1.135.278-1.692.474-.443.155-.876.34-1.309.536-.671.309-1.341.659-1.991 1.082l-.093 7.851.031.082c.021.062.01.114-.031.155l-.062 4.647c3.682-2.442 8.85-3.503 13.832-3.132 2.888.216 5.714.917 8.169 2.122a795.004 795.004 0 0 1-8.458-12.807Zm-16.493 21.246c-2.145-3.947-4.518-7.398-7.849-10.654-3.229-3.163-7.004-5.925-11.253-8.253a62.389 62.389 0 0 0-4.404-2.184 806.92 806.92 0 0 0-7.695 8.52c8.076 2.669 15.142 7.687 19.67 11.448 5.992 4.976 10.644 10.478 13.501 15.96l.134-10.737a115.317 115.317 0 0 0-2.104-4.1Zm1.805 15.671c-4.126-6.718-8.427-11.838-13.532-16.114-5.952-4.977-12.8-8.356-19.876-11.654a837.624 837.624 0 0 0-7.23 8.253c18.153 7.069 32.892 19.35 40.535 33.796.021-1.566.516-13.869.103-14.281Zm-37.06-73.618c-.402.68-.814 1.35-1.258 1.999-3.115 4.575-7.365 8.428-12.429 11.251a2482.424 2482.424 0 0 0 22.506-4.327c5.642-4.72 7.385-11.056 5.034-18.33a104.66 104.66 0 0 0-2.496-1.7l-7.272-4.812c.598 4.647-.887 10.427-4.085 15.92Zm3.961-16.764 6.612 4.37c.815.215 1.62.432 2.424.658 5.848 1.587 11.366 3.091 17.648 3.39 6.56.32 13.192-.391 20.278-2.174.67-.484 5.477-4.956 6.158-5.584-.496.247-1.001.484-1.496.7-15.616 6.904-34.667 2.824-51.768-2.05.051.237.103.474.144.69Zm47.581 6.708c-.258 4.977 1.918 9.53 6.477 13.57.65.577 1.351 1.143 2.094 1.7.072.051.083.144.021.206a.232.232 0 0 1-.269.03c-5.631-3.029-9.231-8.963-9.035-14.847l-2.249 2.082c.021.02.042.04.052.072.041.093.01.185-.082.237-.227.134-.465.257-.702.381a867.55 867.55 0 0 1-3.404 3.143c.134 3.595 1.475 6.82 4.198 10.138 9.242-.814 19.01-1.71 28.159-2.7-10.768-3.266-17.174-12.765-18.03-20.658-2.382 2.174-5.013 4.606-7.23 6.646Zm13.666 5.687c3.384 3.75 7.808 6.131 12.089 8.14.052.02.082.062.093.103 2.197-.237 4.322-.474 6.384-.721 1.259-.144 2.6-.31 4.085-.495-11.903-5.275-20.093-16.557-20.082-27.644-2.806 2.576-5.611 5.142-8.417 7.728.402 4.647 2.424 9.098 5.848 12.89Zm-4.455 54.732c-7.767-3.235-15.565-2.864-22.568 1.062l-.248 20.071c2.424-4.74 7.375-8.295 13.398-9.582a19.041 19.041 0 0 1 1.579-.268c.165-.021.319-.042.484-.062.382-.041.774-.083 1.166-.114l.516-.03c.433-.021.876-.031 1.31-.031h.319a29.4 29.4 0 0 1 1.651.072h.082l.248.031c.464.041.928.092 1.392.154.165.021.32.041.475.072.474.072.938.155 1.402.248.093.02.186.031.279.051.557.124 1.093.258 1.63.412.123.041.247.072.381.114.413.123.825.257 1.228.401.144.052.299.103.443.165.454.175.897.351 1.331.546.051.021.113.042.165.073.484.216.949.453 1.402.7.124.072.238.134.361.206.341.196.661.392.98.608.124.083.238.155.361.237.403.289.805.577 1.166.886a1144.509 1144.509 0 0 1-10.933-16.022Zm-8.799 12.138a22.216 22.216 0 0 0-3.568 1.03c-4.931 1.906-8.799 5.533-10.48 9.994-.062 5.729-.082 11.695-.113 17.331 3.919-4.966 10.768-9.026 18.421-10.901 4.085-1 9.283-1.494 14.389-1.103 4.414.34 8.757 1.33 12.264 3.225-3.456-4.76-6.911-9.602-10.315-14.455-5.549-4.4-13.243-6.584-20.598-5.121Zm-70.375 7.429.01.01c5.343-6.45 3.311-4.018 8.427-9.994 2.32-9.624 1.403-17.588-2.888-25.079-4.033-7.027-11.057-13.147-19.773-17.248a1987.628 1987.628 0 0 1-17.235 2.978c10.407 5.12 18.855 12.446 24.455 21.194 5.663 8.851 8.004 18.556 6.777 28.077.072 0 .154.02.227.062Zm-6.364 7.84a538.106 538.106 0 0 1 5.363-6.625 55.92 55.92 0 0 0 .207-1.895c1.64-19.525-10.604-38.391-31.645-48.51l-.557.094c.485 2.205 1 5.47.794 8.768 16.833 13.26 26.467 31.23 25.838 48.168ZM25.387 89.224c-1.98.34-4.012.71-5.972 1.071l-3.218.588a83.373 83.373 0 0 1 9.902 6.584c.113-2.72-.268-5.564-.712-8.243ZM2.871 92.84c.175 2.566.34 5.131.505 7.687.31 1.38.835 2.606 1.609 3.719 2.341 3.411 7.344 6.316 12.79 4.647 5.137-1.587 7.85-5.09 8.272-10.716a84.233 84.233 0 0 0-10.758-7.13c-3.672.65-8.014 1.381-12.418 1.793Zm47.683-60.842-5.147-3.4c-4.239-2.802-8.488-5.605-12.728-8.407 5.24 11.88 4.807 24.687-1.3 38.091a71.234 71.234 0 0 1-2.02 4.08c-5.096 9.531-12.904 19.165-23.26 28.716 3.682-.66 6.57-1.05 10.253-1.556 3.094-.422 4.27-1.226 7.23-3.05.66-.401 1.32-.824 1.96-1.246 8.365-5.481 14.997-12.22 19.39-19.752 5.736-9.798 7.572-20.75 5.622-33.476Zm2.032 1.34-1.34-.886c2.588 10.643.907 21.76-4.88 32.177-5.549 9.995-14.646 18.598-25.662 24.286 3.466-.495 22.248-3.122 23.827-4.173 8.808-5.842 14.615-11.89 18.267-19.01 3.465-6.76 4.662-14.126 3.764-23.162-4.662-3.07-9.314-6.162-13.976-9.232Zm82.753 8.243a110.636 110.636 0 0 1-24.796 4.368c-16.916 1.03-34.533-1.793-49.777-7.944l5.724 3.771-.02-.165c-.01-.123.082-.226.237-.236.144-.01.268.061.299.175.041.165.082.32.124.484l.04.206 10.284 6.78a.486.486 0 0 1 .269.02c20.133 5.935 41.196 10.953 58.142 1.762 3.125-2.905 6.23-5.77 9.232-8.52v-.114c0-.093.062-.155.165-.186a.33.33 0 0 1 .175-.01c2.95-2.71 5.89-5.378 8.736-7.965-4.961 2.803-11.129 5.286-18.834 7.574Zm21.155-8.697a3660.713 3660.713 0 0 0-10.82 9.86c.299 11.376 7.726 21.618 20.371 28.098 1.444-.185 10.201-1.195 10.624-1.607-6.601-4.379-11.944-10.087-15.461-16.496-3.456-6.295-5.075-13.157-4.714-19.854ZM186.076 68c-6.942-7.347-11.552-16.94-13.017-27.016-.722-4.997-.66-9.974.186-14.796.67-3.791 1.629-8.098 3.651-11.653a1506.345 1506.345 0 0 0-8.076 7.223c-.145.494-.279.989-.413 1.494a38.092 38.092 0 0 0-.845 4.585 48.156 48.156 0 0 0-.083 8.366v.01a42.72 42.72 0 0 0 .578 3.947c.02.092.031.185.051.278.041.206.093.412.134.608 1.754 8.14 5.869 16.186 11.975 23.358.475.556.97 1.112 1.465 1.659a63.163 63.163 0 0 0 2.145 2.256l2.249-.32Zm-2.785.412a55.817 55.817 0 0 1-3.404-3.39 54.938 54.938 0 0 1-3.022-3.596 39.529 39.529 0 0 1-1.361-1.875c-4.817-6.955-7.654-14.858-8.314-23.327v-.01a38.215 38.215 0 0 1-.155-4.967c.011-.453.021-.906.052-1.36.041-.7.103-1.39.186-2.081v-.01c.175-1.824.443-3.627.804-5.39-.969.866-1.918 1.721-2.847 2.566a2499.65 2499.65 0 0 0-8.045 7.264c-.639 9.397 2.672 18.794 9.149 26.758 1.98 2.432 8.355 8.975 11.377 10.077.124-.082 4.569-.515 5.58-.66Zm-16.493 43.367c2.331-16.424 7.128-30.22 14.678-42.172-1.651.227-3.28.443-4.848.65-13.089 12.487-20.949 27.932-23.032 44.438-1.083 8.644-.588 17.588 1.578 26.552.031.113-.052.206-.186.226-.134.021-.258-.041-.299-.154-7.282-24.141.671-51.28 20.742-70.898-4.837.618-9.406 1.154-14.213 1.73-1.351.166-2.764.33-4.342.506-.526.062-1.073.123-1.64.185-13.048 16.31-17.06 35.176-11.284 53.125a1344.42 1344.42 0 0 0 21.165 29.993c-.299-14.28-.413-29.437 1.681-44.181Zm-1.619 46.458-.021-1.071c-1.557-2.092-3.104-4.214-4.662-6.347l-.031-.011a175.718 175.718 0 0 1-3.146-.824c-3.548-.948-6.9-1.844-10.696-2.081-4.755-.278-9.592.226-14.007 1.463-20.433 5.749-17.462 16.362-17.741 30.065 2.507-3.42 5.653-6.501 9.263-9.17a53.448 53.448 0 0 1 2.785-1.926 49.04 49.04 0 0 1 2.949-1.762c10.078-5.605 22.538-8.459 34.791-7.532a66.36 66.36 0 0 1 2.032.185l-.206-.278c-.196-.257-.382-.515-.578-.773v.093c0 .155-.144.268-.34.268-.186.01-.392-.113-.392-.299Z" clip-rule="evenodd"/>
  </g>
  <defs>
    <clipPath id="a">
      <path fill="#fff" d="M0 0h200v193H0z"/>
    </clipPath>
  </defs>
</svg>