<svg xmlns="http://www.w3.org/2000/svg" width="155" height="51" fill="none">
  <path fill="#417F56" d="M.927 12.398c0-.08.047-.121.142-.121.123 0 .318.08.586.237 2.482 1.533 5.704 2.3 9.666 2.3 2.426 0 4.79-.42 7.093-1.26.405-.152.823-.398 1.255-.739.36-.33.723-.657 1.092-.981l.042-.063c0-.11-.223-.195-.67-.259a5.866 5.866 0 0 0-.78-.11c-.172-.028-.366-.118-.58-.27-.24-.143-.366-.302-.38-.474v-.411c0-.679.304-1.419.913-2.22.608-.802 1.228-1.265 1.861-1.388.341.145.512.371.512.68 0 .138-.037.333-.11.586-.092.27-.207.419-.344.443-.281-.288-.466-.432-.553-.432-.229 0-.58.265-1.055.796-.471.527-.707.912-.707 1.155 0 .08.012.132.037.153.257.172.494.272.712.3.71.102 1.085.16 1.123.175.433.13.649.404.649.822 0 .668-.295 1.327-.886 1.978a5.268 5.268 0 0 1-1.814 1.229c-1.083.425-2.305.782-3.665 1.07-1.417.303-2.672.454-3.766.454-2.946 0-5.265-.325-6.956-.976l-.717-.322a35.47 35.47 0 0 1-1.53-1.08c-.78-.669-1.17-1.092-1.17-1.272ZM22.512 3.433c.088-.57.229-.933.422-1.092.032.036.058.06.08.074.09.489.2 1.28.326 2.373.127 1.09.232 2.071.317 2.943.087.872.131 1.333.131 1.382 0 .102-.026.264-.079.485-.049.218-.153.366-.31.443l-.338-2.663a93.184 93.184 0 0 0-.36-2.605 48.842 48.842 0 0 1-.189-1.34ZM27.3 8.95c0-.289.125-.753.375-1.393.274-.626.51-1.051.707-1.276.467.246.801.466 1.002.659.274.281.411.645.411 1.092 0 .822-.281 1.41-.844 1.761-.042.07-.169.125-.38.164-.207.035-.369.052-.485.052-.25 0-.45-.116-.6-.348a1.405 1.405 0 0 1-.185-.712Zm.66-.486c0 .081.047.165.142.253.099.085.176.127.232.127h.164c.344 0 .567-.072.67-.216 0-.26-.09-.49-.27-.686-.179-.2-.38-.322-.606-.364-.221.383-.332.679-.332.886ZM30.085 13.216c0-.07.257-.178.77-.322.77-.253 1.3-.466 1.588-.638.537-.316.905-.68 1.102-1.092.035-.102.052-.16.052-.174 0-.446-.04-.81-.12-1.091-.043-.12-.208-.464-.497-1.034.046-.57.125-.912.238-1.028l.216.131c.204.317.32.493.348.528.13.144.31.25.538.316.281.113.462.151.543.116v1.092a2.449 2.449 0 0 1-.812-.095v.496c0 .654-.188 1.265-.564 1.835-.373.57-.855.976-1.445 1.218-1.305.039-1.957-.047-1.957-.258Z"/>
  <path fill="#417F56" d="M34.652 8.928c.18.007.441-.065.786-.216.344-.151.55-.227.617-.227.13 0 .355.074.675.222.32.147.577.221.77.221v1.092c-.221 0-.489-.081-.802-.243-.313-.161-.527-.242-.643-.242-.053 0-.234.08-.543.242-.31.162-.565.243-.765.243h-.095V8.928Zm1.487 2.89c.166-.481.317-.747.454-.796.123.063.256.142.4.237a1.3 1.3 0 0 1 .312.332c-.11.556-.264.834-.464.834-.074 0-.208-.076-.401-.227a1.876 1.876 0 0 1-.3-.38Zm-1.265.485c0-.165.13-.434.39-.807.397.275.652.468.765.58v.038c0 .126-.036.28-.106.464-.08.193-.16.29-.237.29-.088 0-.246-.074-.475-.222-.225-.148-.337-.262-.337-.343Z"/>
  <path fill="#417F56" d="M37.263 8.928c.57 0 1.18-.072 1.83-.216.703-.18 1.285-.399 1.745-.66-.9-.302-1.41-.453-1.53-.453-.15 0-.386.053-.706.158-.316.106-.56.159-.733.159.172-.605.274-.92.306-.944.091-.173.322-.355.69-.549.127-.07.303-.105.528-.105.095 0 .484.147 1.166.443.756.337 1.21.53 1.36.58a7.67 7.67 0 0 0 2.236.358c.067.057.104.102.111.138 0 .13-.091.386-.274.77h-.18c-.478 0-.838-.037-1.08-.111l-.032.153.031.184c.145.144.357.217.639.217.422 0 .817-.04 1.186-.122v1.092l-1.155.021a.892.892 0 0 1-.696-.274.99.99 0 0 1-.269-.707c0-.046.007-.112.021-.2.018-.092.027-.162.027-.211v-.153c-.334 0-.725.075-1.171.227-.612.225-1.09.42-1.435.585-.675.274-1.08.429-1.218.464-.46.165-.886.248-1.276.248h-.121V8.928Zm2.684 2.874c.158-.555.323-.847.496-.875.109.014.253.072.432.174.225.144.338.267.338.37 0 .076-.037.212-.111.405-.07.176-.146.3-.227.37h-.053c-.137 0-.302-.048-.495-.143-.253-.077-.38-.178-.38-.3Z"/>
  <path fill="#417F56" d="M44.108 5.51c.158-.555.323-.846.496-.875.109.014.253.072.432.174.225.145.338.268.338.37 0 .077-.037.212-.111.406-.07.175-.146.299-.227.369h-.053c-.137 0-.302-.048-.495-.143-.254-.077-.38-.177-.38-.3Zm.269 3.418c.489.007.765-.096.828-.31-.021-.089-.107-.254-.259-.497-.13-.204-.205-.374-.226-.511.08-.229.177-.484.29-.765h.047c.158 0 .31.227.454.68.15.398.226.71.226.94 0 .495-.079.866-.237 1.112-.19.295-.515.443-.975.443h-.148V8.928ZM45.374 12.224c.963-.06 1.53-.11 1.703-.153.51-.158 1.007-.473 1.492-.944.49-.47.82-.966.992-1.487a44.554 44.554 0 0 1-.475-.849c-.246-.464-.369-.768-.369-.912l.037-.116c.014-.028.06-.144.137-.348.06-.18.118-.27.174-.27.166 0 .36.242.586.723.228.419.342.733.342.944 0 1.403-.425 2.533-1.276 3.391-.4.387-.814.58-1.24.58-.252 0-.894-.09-1.924-.269a1.657 1.657 0 0 1-.18-.195v-.095Zm2.341-6.223c.158-.555.324-.847.496-.875.109.014.253.072.432.174.225.144.338.267.338.37 0 .076-.037.212-.11.405-.071.176-.147.299-.228.37h-.052c-.138 0-.303-.048-.496-.143-.253-.077-.38-.178-.38-.3Z"/>
  <path fill="#417F56" d="M38.011 12.398c0-.08.048-.121.143-.121.123 0 .318.08.585.237 2.483 1.533 5.705 2.3 9.667 2.3 2.426 0 4.79-.42 7.093-1.26.404-.152.823-.398 1.255-.739.359-.33.723-.657 1.092-.981l.042-.063c0-.11-.223-.195-.67-.259a5.866 5.866 0 0 0-.78-.11c-.172-.028-.366-.118-.58-.27-.24-.143-.366-.302-.38-.474v-.411c0-.679.304-1.419.912-2.22.609-.802 1.23-1.265 1.862-1.388.341.145.512.371.512.68 0 .138-.037.333-.111.586-.092.27-.206.419-.343.443-.281-.288-.466-.432-.554-.432-.228 0-.58.265-1.054.796-.472.527-.707.912-.707 1.155 0 .08.012.132.037.153.256.172.494.272.712.3.71.102 1.084.16 1.123.175.433.13.649.404.649.822 0 .668-.296 1.327-.886 1.978a5.267 5.267 0 0 1-1.814 1.229c-1.083.425-2.305.782-3.666 1.07-1.416.303-2.672.454-3.765.454-2.946 0-5.265-.325-6.956-.976l-.717-.322c-.64-.432-1.15-.792-1.53-1.08-.78-.669-1.17-1.092-1.17-1.272ZM59.36 3.354c.102-.573.173-.932.216-1.076.095.084.16.236.195.454.046.098.079.256.1.474.359 2.627.541 3.998.548 4.114.103.685.182 1.074.238 1.165.158.296.46.443.907.443v1.092c-.633 0-1.018-.123-1.155-.37-.109-.15-.22-.495-.332-1.033l-.153-1.113c-.253-2.13-.441-3.514-.565-4.15Z"/>
  <path fill="#417F56" d="M61.358 8.928c.285 0 .605-.045.96-.137.425-.102.724-.218.897-.348-.187-.404-.28-.631-.28-.68 0-.158.072-.35.216-.575.151-.264.241-.447.27-.549-.103-.063-.154-.175-.154-.337 0-.165.051-.352.153-.56.099-.245.216-.368.354-.368.432 0 .933.332 1.503.996.453.517.69.79.712.818.295.397.443.736.443 1.018 0 .13-.134.411-.401.844-.078.098-.218.147-.422.147-.69 0-1.206-.086-1.55-.258l-1.224.67c-.577.274-1.037.41-1.382.41h-.095V8.93Zm3.217-.69c.64.165 1.025.247 1.155.247.095 0 .142-.035.142-.105 0-.144-.163-.382-.49-.712a3.834 3.834 0 0 0-.701-.607c.06.387.024.78-.106 1.176Zm-1.308-.454c0 .08.014.125.042.132.219.12.438.165.66.137.239-.158.358-.324.358-.496a.821.821 0 0 0-.11-.411c-.078-.123-.178-.185-.301-.185-.109 0-.244.11-.406.327-.162.215-.243.38-.243.496Z"/>
  <path fill="#417F56" d="M52.636 12.203c0-.053.04-.079.12-.079.103 0 .322.091.66.274 1.863.943 3.461 1.575 4.794 1.899 1.483.344 3.176.517 5.078.517 2.922 0 5.232-.271 6.93-.813 1.702-.537 2.992-1.555 3.871-3.053 0-.468-.148-.986-.443-1.556-.295-.57-.443-.886-.443-.949 0-.137.093-.443.28-.918-.014-.158.017-.237.094-.237.145 0 .364.385.66 1.155.302.735.453 1.229.453 1.482.123.977-.299 2.013-1.266 3.106-.963 1.097-2.506 1.907-4.63 2.431a28.137 28.137 0 0 1-5.39.544c-1.381 0-2.69-.069-3.929-.206-1.663-.225-2.909-.554-3.739-.986-.488-.243-1.028-.607-1.619-1.092a13.79 13.79 0 0 0-.822-.69c-.44-.395-.66-.67-.66-.829ZM71.32 4.82c0-.07.078-.218.232-.443.155-.229.253-.343.296-.343.06 0 .207.062.443.185.253.144.38.262.38.353 0 .067-.073.208-.217.422-.13.246-.242.37-.337.37-.085 0-.24-.071-.465-.212-.221-.14-.332-.251-.332-.332ZM75.502 3.433c.088-.57.229-.933.422-1.092a.47.47 0 0 0 .08.074c.09.489.2 1.28.326 2.373.127 1.09.232 2.071.317 2.943.088.872.132 1.333.132 1.382 0 .102-.027.264-.08.485-.049.218-.153.366-.31.443l-.338-2.663a93.184 93.184 0 0 0-.359-2.605 48.655 48.655 0 0 1-.19-1.34ZM76.457 12.224c.963-.06 1.531-.11 1.703-.153.51-.158 1.008-.473 1.493-.944.488-.47.819-.966.991-1.487a44.554 44.554 0 0 1-.474-.849c-.246-.464-.37-.768-.37-.912l.037-.116c.014-.028.06-.144.138-.348.06-.18.117-.27.174-.27.165 0 .36.242.585.723.228.419.343.733.343.944 0 1.403-.426 2.533-1.277 3.391-.4.387-.813.58-1.239.58-.253 0-.895-.09-1.925-.269a1.657 1.657 0 0 1-.18-.195v-.095ZM81.05 12.135c.028-.021.081-.032.159-.032h.532c.749 0 1.257-.035 1.524-.105.352-.116.782-.39 1.292-.823.535-.44.863-.825.986-1.155-.597 0-.995-.04-1.191-.121-.359-.12-.538-.426-.538-.918 0-.31.116-.657.348-1.044.25-.433.5-.649.754-.649.186 0 .399.227.638.68.221.352.37.672.443.96h.28v1.092h-.39c-.05.489-.326 1.035-.829 1.64-.513.57-1.007.94-1.482 1.113-.425-.07-.912-.157-1.46-.259-.71-.158-1.066-.284-1.066-.38Zm3.328-3.412a.853.853 0 0 0 .559.205c.035 0 .08-.007.132-.02a.713.713 0 0 0-.08-.323c-.077-.144-.163-.216-.258-.216-.172 0-.29.118-.353.354Z"/>
  <path fill="#417F56" d="M86.092 8.928c.18.007.441-.065.786-.216.344-.151.55-.227.617-.227.13 0 .355.074.675.222.32.147.576.221.77.221v1.092c-.222 0-.489-.081-.802-.243-.313-.161-.527-.242-.643-.242-.053 0-.234.08-.543.242-.31.162-.565.243-.765.243h-.095V8.928Zm1.266-3.022c.165-.481.316-.747.453-.796.123.063.257.142.401.237a1.3 1.3 0 0 1 .311.333c-.109.555-.263.833-.464.833-.074 0-.207-.076-.4-.227a1.87 1.87 0 0 1-.301-.38Zm-1.266.486c0-.166.13-.435.39-.807.397.274.652.467.765.58v.037c0 .126-.035.281-.106.464-.08.193-.16.29-.237.29-.088 0-.246-.074-.474-.222-.226-.147-.338-.262-.338-.342Z"/>
  <path fill="#417F56" d="M88.703 8.928c.499 0 .975-.058 1.429-.174.675-.158 1.067-.385 1.176-.68.109-.295.209-.478.3-.549.032.022.048.069.048.143 0 .228-.065.534-.195.917a.785.785 0 0 0 .258.053c.735 0 1.246-.109 1.535-.327.179-.144.316-.381.411-.712.091-.316.234-.513.427-.59l.027.042a.13.13 0 0 1 .02.074c0 .109-.047.372-.142.79.102.159.206.256.311.29l.464.106.275-.105a.679.679 0 0 0-.048-.238.723.723 0 0 1-.042-.184c0-.042.047-.208.143-.496.123-.33.184-.506.184-.527.077 0 .156.121.237.364.07.193.106.351.106.474 0 .426-.076.81-.227 1.155-.2.454-.489.68-.865.68-.186 0-.503-.135-.95-.406-.108.264-.363.468-.764.612-.31.102-.638.153-.986.153-.344 0-.664-.05-.96-.153-.682.253-1.318.38-1.909.38h-.263V8.928ZM95.453 12.224c.963-.06 1.53-.11 1.703-.153.51-.158 1.007-.473 1.493-.944.488-.47.819-.966.991-1.487a44.554 44.554 0 0 1-.475-.849c-.246-.464-.369-.768-.369-.912l.037-.116c.014-.028.06-.144.137-.348.06-.18.118-.27.174-.27.166 0 .36.242.586.723.228.419.343.733.343.944 0 1.403-.426 2.533-1.277 3.391-.4.387-.814.58-1.239.58-.253 0-.895-.09-1.925-.269a1.657 1.657 0 0 1-.18-.195v-.095ZM21.366 39.052H19.61c-2.246 0-4.207-.691-5.881-2.073-1.569-1.29-2.685-3.018-3.35-5.184-.292-.957-.937-1.436-1.934-1.436-.585 0-1.083.2-1.495.598a1.916 1.916 0 0 0-.598 1.436c0 .572.2 1.063.598 1.475.412.399.91.598 1.495.598h3.21v4.586h-2.99c-1.861 0-3.47-.631-4.825-1.894-1.343-1.263-2.014-2.851-2.014-4.765 0-1.821.644-3.376 1.934-4.666 1.29-1.289 2.85-1.933 4.685-1.933 1.422 0 2.725.438 3.908 1.315 1.183.864 1.994 1.98 2.432 3.35.824 2.672 2.433 4.007 4.825 4.007h1.755v4.586Z"/>
  <path fill="#417F56" d="M30.059 22.105h-2.273c-.625 0-1.163-.22-1.615-.658a2.205 2.205 0 0 1-.678-1.615c0-.625.226-1.163.678-1.615.452-.452.99-.678 1.615-.678a2.14 2.14 0 0 1 1.595.678c.452.452.678.99.678 1.615v2.273Zm7.855 16.947H36.14c-1.848 0-3.55-.565-5.104-1.695v1.695H19.61v-4.586h6.859v-8.533h4.566v2.851c0 1.635.471 2.99 1.415 4.068.944 1.076 2.173 1.614 3.689 1.614h1.774v4.586Z"/>
  <path fill="#417F56" d="M54.303 39.052h-1.774c-1.848 0-3.55-.565-5.105-1.695v1.695H36v-4.586h6.859v-8.533h4.565v2.851c0 1.635.472 2.99 1.416 4.068.944 1.076 2.173 1.614 3.688 1.614h1.775v4.586Zm-3.748 8.115h-2.313a2.205 2.205 0 0 1-1.615-.678 2.239 2.239 0 0 1-.658-1.615c0-.638.22-1.176.658-1.615.452-.439.99-.658 1.615-.658.638 0 1.183.22 1.635.658.452.439.678.977.678 1.615v2.293Zm-5.184 0h-2.293a2.228 2.228 0 0 1-1.635-.678 2.239 2.239 0 0 1-.658-1.615c0-.638.22-1.176.658-1.615a2.262 2.262 0 0 1 1.635-.658c.625 0 1.163.22 1.615.658.452.439.678.977.678 1.615v2.293Z"/>
  <path fill="#417F56" d="M75.038 39.052h-22.65v-4.586h17.825a5.753 5.753 0 0 0-2.073-2.87c-.984-.745-2.114-1.117-3.39-1.117l-6.798.02v-4.566h6.798c2.832 0 5.25 1.004 7.258 3.01 2.02 1.994 3.03 4.414 3.03 7.258v2.851ZM63.355 23.58h-2.273c-.625 0-1.163-.219-1.615-.657a2.205 2.205 0 0 1-.678-1.615c0-.625.226-1.163.678-1.615.452-.452.99-.678 1.615-.678a2.14 2.14 0 0 1 1.595.678c.452.451.678.99.678 1.614v2.273Z"/>
  <path fill="#417F56" d="M89.482 39.052h-1.774c-1.834 0-3.536-.565-5.104-1.695v1.097c0 2.871-1.037 5.297-3.11 7.277-2.06 1.994-4.64 2.99-7.736 2.99v-4.565c1.847 0 3.356-.551 4.525-1.655 1.183-1.103 1.775-2.452 1.775-4.047v-12.52h4.546v2.85c0 1.635.472 2.99 1.415 4.068.957 1.076 2.187 1.614 3.689 1.614h1.774v4.586Z"/>
  <path fill="#417F56" d="M99.132 39.052H87.708v-4.586h6.858v-8.533h4.566v13.12Zm.2-17.266h-2.313a2.205 2.205 0 0 1-1.615-.678 2.239 2.239 0 0 1-.658-1.615c0-.638.22-1.176.658-1.615.452-.438.99-.658 1.615-.658.638 0 1.183.22 1.635.658.452.439.678.977.678 1.615v2.293Zm-5.184 0h-2.293a2.228 2.228 0 0 1-1.635-.678 2.239 2.239 0 0 1-.658-1.615c0-.638.22-1.176.658-1.615a2.263 2.263 0 0 1 1.635-.658c.624 0 1.163.22 1.615.658.452.439.678.977.678 1.615v2.293ZM123.544 30.718c-1.347-.571-2.693-.99-3.918-1.938 1.104-.061 1.944.459 2.875.673-1.326-1.091-2.743-2.06-3.776-3.479 1.094.725 2.187 1.439 3.28 2.163.03-.03.061-.05.081-.081l-2.207-2.316.091-.153c.304.163.658.265.901.5.982.928 1.924 1.897 2.875 2.856.253.255.476.52.759.827.203-.194.355-.357.517-.49.283-.214.232-.418.06-.684-1.265-1.918-2.945-3.407-4.899-4.54-1.498-.867-3.118-1.52-4.677-2.275-.668-.326-1.326-.673-1.994-1.01.031-.081.051-.163.081-.245.496.102 1.002.194 1.61.317-.962-.827-2.045-1.367-2.652-2.418.03-.04.05-.092.081-.133 1.214.755 2.419 1.51 3.765 2.347-.901-1.235-1.711-2.337-2.51-3.438.04-.041.081-.082.131-.123.415.408.851.786 1.235 1.214 1.033 1.163 2.005 2.387 3.078 3.5.496.51 1.174.836 1.761 1.254.8.562 1.589 1.133 2.46 1.755-.061-.183-.081-.306-.142-.398-1.67-2.836-3.502-5.57-5.831-7.916-.404-.409-.951-.704-1.477-.95-.901-.407-1.853-.713-2.774-1.07-.557-.215-1.103-.46-1.488-.95.02-.06.04-.111.061-.173.799.204 1.609.419 2.409.623-1.569-1.429-3.28-2.714-4.333-4.632a690.417 690.417 0 0 1 4.272 3.56c.041-.03.081-.071.111-.102a664.366 664.366 0 0 1-2.297-3.315l.151-.153c.243.204.527.377.719.622.83 1.081 1.589 2.234 2.47 3.285.749.888 1.64 1.663 2.419 2.52.719.786 1.377 1.622 2.055 2.438l.314.378c.041-.02.081-.041.132-.072-.132-.306-.264-.622-.405-.918-.668-1.398-1.255-2.856-2.045-4.183-1.073-1.795-2.389-3.417-4.079-4.682-.436-.327-.992-.47-1.509-.684-.769-.326-1.599-.54-2.227-1.255.911-.214 1.64.398 2.602.551-.84-.918-2.075-1.255-2.48-2.397l.111-.174c.395.225.8.46 1.266.725-.365-.653-.699-1.245-1.023-1.847l.091-.092c.213.174.456.316.618.52 1.042 1.316 2.044 2.663 3.097 3.959a55.716 55.716 0 0 0 2.915 3.305c-.364-.847-.698-1.703-1.103-2.53-.506-1.05-.881-2.173-1.731-3.02A269.38 269.38 0 0 1 110 2.316a5.234 5.234 0 0 1-.83-1.143c1.366.653 2.298 1.837 3.391 2.826.04-.03.081-.05.121-.081A668.583 668.583 0 0 0 110.82.102c.05-.03.111-.071.162-.102.982 1.47 1.974 2.938 2.955 4.407l.102-.03c-.193-1.051-.385-2.092-.567-3.143.061-.02.121-.04.182-.05.081.214.182.418.223.642.192.949.303 1.918.577 2.836.354 1.163.83 2.286 1.285 3.408.253.632.577 1.244.952 1.857.04-1.929-.537-3.826-.314-5.754.061-.01.111-.02.172-.041.172.459.334.918.506 1.377h.091c.152-.836.304-1.683.476-2.601.486.346.456.734.415 1.091-.172 1.48-.364 2.959-.547 4.428a.95.95 0 0 0 .051.439c.557-.929.769-2.03 1.518-2.826.051.01.102.03.142.04-.01.153.01.317-.04.45a60.69 60.69 0 0 1-.79 2.305c-.466 1.245-.719 2.52-.496 3.836.122.704.445 1.377.739 2.04a223.578 223.578 0 0 0 2.278 5.05c.354.765.759 1.5 1.143 2.255.061-.01.112-.03.173-.04-.071-.409-.112-.827-.203-1.235-.233-.98-.496-1.959-.739-2.938-.233-.919-.486-1.827-.678-2.755-.111-.55-.132-1.122-.192-1.683.07-.02.131-.03.202-.051.253.602.516 1.214.82 1.948l.476-2.877c.05 0 .101.01.141.01.071 1.245.142 2.5.223 3.745.041.01.081.01.132.02.354-.796.445-1.724 1.265-2.316-.061.367-.101.725-.182 1.092-.294 1.316-.688 2.622-.881 3.958-.101.735.112 1.51.223 2.265.152.99.172 2.05.567 2.928.678 1.5 1.609 2.877 2.47 4.377.253-.245.394-.398.556-.541.243-.214.243-.418.122-.714a91.672 91.672 0 0 1-1.276-3.142c-.121-.327-.141-.684-.202-1.03.061-.021.111-.052.172-.072.344.653.699 1.296 1.124 2.091-.081-1.612-.486-3.08-.051-4.56.587.949.385 2.102.79 3.234.232-.826.435-1.54.637-2.275.506.143.506.459.436.785-.193.96-.415 1.918-.608 2.877-.081.429-.111.868-.152 1.306-.01.102.071.204.132.398l6.61-6.54c-1.124-1.264-1.498-2.713-1.134-4.294.142-.602.456-1.235.871-1.684 3.907-4.295 7.855-8.56 11.793-12.834.04-.05.101-.082.151-.122.679.387.77.877.284 1.438-2.976 3.448-5.962 6.897-8.928 10.355-.203.235-.476.49-.152.837.273.285.81.347 1.113.081.426-.387.82-.806 1.225-1.214 2.865-2.928 5.74-5.856 8.604-8.784.122-.122.213-.265.314-.377.759.408.861.898.344 1.49a8915.59 8915.59 0 0 0-8.827 10.232c-.242.276-.627.561-.192.98.314.305.861.255 1.225-.113 1.68-1.714 3.351-3.448 5.051-5.152 1.68-1.673 3.381-3.315 5.112-4.999.557.286.668.816.192 1.367a10391.79 10391.79 0 0 0-8.867 10.274c-.223.255-.638.51-.243.938.324.357.86.337 1.265-.06 1.266-1.276 2.521-2.562 3.776-3.847 1.974-2.02 3.948-4.05 5.932-6.07.121-.123.243-.225.476-.45.202.409.374.756.546 1.113-1.184 1.285-2.338 2.55-3.492 3.805-2.743 2.98-5.517 5.928-8.209 8.947-1.65 1.857-4.221 1.898-5.79.347-.051-.05-.102-.081-.193-.153-.162.194-.334.378-.486.572a1112.2 1112.2 0 0 1-4.373 5.213c-.222.265-.283.49-.162.826.243.704.426 1.428.648 2.143.041.142.122.275.233.408.162-1.163-.273-2.357.273-3.612.142.49.304.867.355 1.255.131 1.112.182 2.224.334 3.336.202 1.48.496 2.949 1.366 4.214.78 1.142 1.519 2.326 2.349 3.438.354.48.86.857 1.326 1.244 1.093.908 2.196 1.796 3.3 2.694.101.081.212.132.364.224-1.103-1.326-2.217-2.57-3.229-3.897-1.012-1.316-2.146-2.55-2.844-4.08l.162-.134c.708.847 1.417 1.684 2.206 2.612a690.84 690.84 0 0 1-1.599-3.917c.061-.031.121-.051.182-.082.81 1.56 1.468 3.214 2.602 4.59l-.547-3.57c.698.51.739 1.255.901 1.939.172.755.314 1.52.455 2.285.213 1.122.628 2.132 1.458 2.958 1.103 1.112 2.085 2.388 3.29 3.377 1.235 1.01 2.652 1.796 4.029 2.622 1.073.633 2.206 1.173 3.31 1.745a.412.412 0 0 1 .233.265c-.689-.286-1.418-.52-2.076-.867-1.791-.96-3.543-2.01-5.344-2.959-1.711-.898-3.432-1.826-5.234-2.52-.992-.377-2.156-.306-3.239-.398-.789-.071-1.579-.06-2.369-.132-.273-.02-.536-.163-.799-.337.87-.51 1.802-.214 2.713-.377-1.286-.398-2.561-.796-3.847-1.194a.99.99 0 0 1 .041-.173c.475-.276.971-.143 1.467-.031.476.102.952.235 1.458.245-1.194-.735-2.389-1.48-3.583-2.214 1.245.122 2.297.704 3.36 1.255 1.235.653 2.44 1.377 3.675 2.04.526.276 1.093.48 1.64.714.03-.04.05-.081.081-.122-.375-.316-.749-.622-1.124-.949-2.419-2.122-5.183-3.703-8.068-5.06-.718-.337-1.599-.337-2.409-.51-.789-.163-1.579-.316-2.358-.51-.243-.061-.466-.235-.78-.398.78-.47 1.488-.01 2.318-.092-.86-.449-1.609-.826-2.389-1.224l-2.318 2.765c-3.3 3.958-6.6 7.906-9.9 11.865-.819.979-1.862 1.316-3.087.99-1.245-.338-1.943-1.205-2.197-2.47-.263-1.306.092-2.367 1.053-3.315 4.667-4.581 9.303-9.182 13.949-13.783.071-.184.203-.337.385-.52Zm7.379-1.948c-.648.765-1.235 1.438-1.792 2.142-.091.112-.091.388-.02.53a15.45 15.45 0 0 0 2.794 3.96c.304.315.567.672.86.989.365.398.76.765 1.144 1.153.061-.051.122-.092.182-.143-.526-.929-1.052-1.867-1.589-2.796-.739-1.285-1.498-2.57-2.217-3.866-.131-.235-.121-.561-.182-.847l.213-.092c.445.724.901 1.449 1.346 2.163.04-.02.071-.03.111-.051-.263-1-.546-2.02-.85-3.142Zm-4.13 4.938c1.954 2.173 4.444 3.376 6.954 4.57-2.034-1.846-3.725-4.08-6.215-5.468-.243.306-.486.602-.739.898Z"/>
</svg>